<?xml version="1.0" standalone="no"?>
<!DOCTYPE svg PUBLIC "-//W3C//DTD SVG 20010904//EN"
 "http://www.w3.org/TR/2001/REC-SVG-20010904/DTD/svg10.dtd">
<svg version="1.0" xmlns="http://www.w3.org/2000/svg"
 width="128.000000pt" height="128.000000pt" viewBox="0 0 128.000000 128.000000"
 preserveAspectRatio="xMidYMid meet">
<metadata>
Created by potrace 1.11, written by Peter Selinger 2001-2013
</metadata>
<g transform="translate(0.000000,128.000000) scale(0.100000,-0.100000)"
fill="#000000" stroke="none">
<path d="M489 1187 c-1 -12 -2 -96 -3 -187 l-1 -165 -195 -2 c-107 -1 -203 -2
-213 -2 -16 -1 -17 -20 -15 -288 l3 -288 156 0 c139 0 155 -2 152 -16 -3 -11
-24 -21 -63 -28 -73 -15 -114 -44 -100 -71 15 -28 46 -42 122 -55 79 -14 162
-10 234 10 115 33 95 89 -41 119 -31 7 -50 17 -50 26 0 11 28 14 150 16 83 1
153 2 158 3 4 0 7 42 6 92 -1 49 1 92 3 94 2 2 37 4 78 6 165 5 251 67 158
115 -16 8 -51 18 -79 21 -38 5 -49 10 -49 24 0 17 12 18 150 18 82 0 153 2
157 4 6 4 10 482 4 559 -1 16 -29 17 -361 17 l-360 -1 -1 -21z m308 -589 c-3
-7 -5 -2 -5 12 0 14 2 19 5 13 2 -7 2 -19 0 -25z"/>
</g>
</svg>
